<svg xmlns="http://www.w3.org/2000/svg" xmlns:xlink="http://www.w3.org/1999/xlink" contentStyleType="text/css" data-diagram-type="CLASS" height="457px" preserveAspectRatio="none" style="width:629px;height:457px;background:#FFFFFF;" version="1.1" viewBox="0 0 629 457" width="629px" zoomAndPan="magnify"><defs/><g><!--class View--><g class="entity" data-entity="View" data-source-line="10" data-uid="ent0002" id="entity_View"><rect fill="#FFFFFF" height="58.5938" rx="2.5" ry="2.5" style="stroke:#000000;stroke-width:1;" width="70.8369" x="552" y="204"/><text fill="#000000" font-family="Verdana" font-size="14" font-style="italic" lengthAdjust="spacing" textLength="33.5303" x="570.6533" y="221.9951">View</text><line style="stroke:#000000;stroke-width:1;" x1="553" x2="621.8369" y1="230.2969" y2="230.2969"/><line style="stroke:#000000;stroke-width:1;" x1="553" x2="621.8369" y1="238.2969" y2="238.2969"/><text fill="#000000" font-family="Verdana" font-size="14" lengthAdjust="spacing" textLength="58.8369" x="558" y="255.292">+show()</text></g><!--class QtMainView--><g class="entity" data-entity="QtMainView" data-source-line="14" data-uid="ent0003" id="entity_QtMainView"><rect fill="#FFFFFF" height="74.8906" rx="2.5" ry="2.5" style="stroke:#000000;stroke-width:1;" width="168.2627" x="12" y="12"/><text fill="#000000" font-family="Verdana" font-size="14" lengthAdjust="spacing" textLength="83.46" x="54.4014" y="29.9951">QtMainView</text><line style="stroke:#000000;stroke-width:1;" x1="13" x2="179.2627" y1="38.2969" y2="38.2969"/><text fill="#000000" font-family="Verdana" font-size="14" lengthAdjust="spacing" textLength="156.2627" x="18" y="55.292">-window: MainWindow</text><line style="stroke:#000000;stroke-width:1;" x1="13" x2="179.2627" y1="62.5938" y2="62.5938"/><text fill="#000000" font-family="Verdana" font-size="14" lengthAdjust="spacing" textLength="58.8369" x="18" y="79.5889">+show()</text></g><!--class MainWindow--><g class="entity" data-entity="MainWindow" data-source-line="20" data-uid="ent0005" id="entity_MainWindow"><rect fill="#FFFFFF" height="123.7813" rx="2.5" ry="2.5" style="stroke:#000000;stroke-width:1;" width="251.9893" x="240" y="44.5"/><text fill="#000000" font-family="Verdana" font-size="14" lengthAdjust="spacing" textLength="88.9287" x="321.5303" y="62.4951">MainWindow</text><line style="stroke:#000000;stroke-width:1;" x1="241" x2="490.9893" y1="70.7969" y2="70.7969"/><text fill="#000000" font-family="Verdana" font-size="14" lengthAdjust="spacing" textLength="128.3721" x="246" y="87.792">-tab_bar: QTabBar</text><text fill="#000000" font-family="Verdana" font-size="14" lengthAdjust="spacing" textLength="239.9893" x="246" y="104.0889">-stacked_widget: QStackedWidget</text><text fill="#000000" font-family="Verdana" font-size="14" lengthAdjust="spacing" textLength="107.1123" x="246" y="120.3857">-views: View[3]</text><line style="stroke:#000000;stroke-width:1;" x1="241" x2="490.9893" y1="127.6875" y2="127.6875"/><text fill="#000000" font-family="Verdana" font-size="14" lengthAdjust="spacing" textLength="188.6992" x="246" y="144.6826">-switch_tab(index: Integer)</text><text fill="#000000" font-family="Verdana" font-size="14" lengthAdjust="spacing" textLength="58.8369" x="246" y="160.9795">+show()</text></g><!--class QtViewRS485--><g class="entity" data-entity="QtViewRS485" data-source-line="32" data-uid="ent0008" id="entity_QtViewRS485"><rect fill="#FFFFFF" height="58.5938" rx="2.5" ry="2.5" style="stroke:#000000;stroke-width:1;" width="101.375" x="315.5" y="204"/><text fill="#000000" font-family="Verdana" font-size="14" lengthAdjust="spacing" textLength="95.375" x="318.5" y="221.9951">QtViewRS485</text><line style="stroke:#000000;stroke-width:1;" x1="316.5" x2="415.875" y1="230.2969" y2="230.2969"/><line style="stroke:#000000;stroke-width:1;" x1="316.5" x2="415.875" y1="238.2969" y2="238.2969"/><text fill="#000000" font-family="Verdana" font-size="14" lengthAdjust="spacing" textLength="58.8369" x="321.5" y="255.292">+show()</text></g><!--class QtViewMKO--><g class="entity" data-entity="QtViewMKO" data-source-line="38" data-uid="ent0010" id="entity_QtViewMKO"><rect fill="#FFFFFF" height="58.5938" rx="2.5" ry="2.5" style="stroke:#000000;stroke-width:1;" width="88.3184" x="322" y="298"/><text fill="#000000" font-family="Verdana" font-size="14" lengthAdjust="spacing" textLength="82.3184" x="325" y="315.9951">QtViewMKO</text><line style="stroke:#000000;stroke-width:1;" x1="323" x2="409.3184" y1="324.2969" y2="324.2969"/><line style="stroke:#000000;stroke-width:1;" x1="323" x2="409.3184" y1="332.2969" y2="332.2969"/><text fill="#000000" font-family="Verdana" font-size="14" lengthAdjust="spacing" textLength="58.8369" x="328" y="349.292">+show()</text></g><!--class QtViewPKU--><g class="entity" data-entity="QtViewPKU" data-source-line="44" data-uid="ent0012" id="entity_QtViewPKU"><rect fill="#FFFFFF" height="58.5938" rx="2.5" ry="2.5" style="stroke:#000000;stroke-width:1;" width="83.9092" x="324" y="392"/><text fill="#000000" font-family="Verdana" font-size="14" lengthAdjust="spacing" textLength="77.9092" x="327" y="409.9951">QtViewPKU</text><line style="stroke:#000000;stroke-width:1;" x1="325" x2="406.9092" y1="418.2969" y2="418.2969"/><line style="stroke:#000000;stroke-width:1;" x1="325" x2="406.9092" y1="426.2969" y2="426.2969"/><text fill="#000000" font-family="Verdana" font-size="14" lengthAdjust="spacing" textLength="58.8369" x="330" y="443.292">+show()</text></g><!--link QtMainView to View--><g class="link" data-entity-1="QtMainView" data-entity-2="View" data-source-line="19" data-uid="lnk4" id="link_QtMainView_View"><path codeLine="19" d="M180.02,28.25 C320.54,28.25 588,28.25 588,28.25 C588,28.25 588,128.73 588,185.65" fill="none" id="QtMainView-to-View" style="stroke:#000000;stroke-width:1;"/><polygon fill="none" points="588,203.65,594,185.65,582,185.65,588,203.65" style="stroke:#000000;stroke-width:1;"/></g><!--link QtMainView to MainWindow--><g class="link" data-entity-1="QtMainView" data-entity-2="MainWindow" data-source-line="20" data-uid="lnk6" id="link_QtMainView_MainWindow"><path codeLine="20" d="M192.32,65.75 C211.2,65.75 213.62,65.75 233.78,65.75" fill="none" id="QtMainView-MainWindow" style="stroke:#000000;stroke-width:1;"/><polygon fill="none" points="180.32,65.75,186.32,69.75,192.32,65.75,186.32,61.75,180.32,65.75" style="stroke:#000000;stroke-width:1;"/><polygon fill="#000000" points="239.78,65.75,230.78,61.75,234.78,65.75,230.78,69.75,239.78,65.75" style="stroke:#000000;stroke-width:1;"/></g><!--link MainWindow to View--><g class="link" data-entity-1="MainWindow" data-entity-2="View" data-source-line="30" data-uid="lnk7" id="link_MainWindow_View"><path codeLine="30" d="M455,180.51 C455,208.62 455,223.67 455,223.67 C455,223.67 506.74,223.67 545.99,223.67" fill="none" id="MainWindow-View" style="stroke:#000000;stroke-width:1;"/><polygon fill="none" points="455,168.51,451,174.51,455,180.51,459,174.51,455,168.51" style="stroke:#000000;stroke-width:1;"/><polygon fill="#000000" points="551.99,223.67,542.99,219.67,546.99,223.67,542.99,227.67,551.99,223.67" style="stroke:#000000;stroke-width:1;"/></g><!--link QtViewRS485 to View--><g class="link" data-entity-1="QtViewRS485" data-entity-2="View" data-source-line="36" data-uid="lnk9" id="link_QtViewRS485_View"><path codeLine="36" d="M416.54,243.33 C457.78,243.33 497.03,243.33 533.67,243.33" fill="none" id="QtViewRS485-to-View" style="stroke:#000000;stroke-width:1;"/><polygon fill="none" points="551.67,243.33,533.67,237.33,533.67,249.33,551.67,243.33" style="stroke:#000000;stroke-width:1;"/></g><!--link QtViewMKO to View--><g class="link" data-entity-1="QtViewMKO" data-entity-2="View" data-source-line="42" data-uid="lnk11" id="link_QtViewMKO_View"><path codeLine="42" d="M410.02,327.5 C471.6,327.5 576,327.5 576,327.5 C576,327.5 576,308.78 576,281.24" fill="none" id="QtViewMKO-to-View" style="stroke:#000000;stroke-width:1;"/><polygon fill="none" points="576,263.24,570,281.24,582,281.24,576,263.24" style="stroke:#000000;stroke-width:1;"/></g><!--link QtViewPKU to View--><g class="link" data-entity-1="QtViewPKU" data-entity-2="View" data-source-line="48" data-uid="lnk13" id="link_QtViewPKU_View"><path codeLine="48" d="M408.1,421.5 C475.47,421.5 600,421.5 600,421.5 C600,421.5 600,334.3 600,281.29" fill="none" id="QtViewPKU-to-View" style="stroke:#000000;stroke-width:1;"/><polygon fill="none" points="600,263.29,594,281.29,606,281.29,600,263.29" style="stroke:#000000;stroke-width:1;"/></g><!--SRC=[TP1DJyCm38Rl-HNcjWbLGW8ar0CIS9gc2KQ17H2hqjHhh7L9bHhAX_ZlfEtOii5oYb_xyMlxY3Mk4AfIaX6YNfAff9Chk2bbNLynEyfU6KVAceG-4Kw4A771m1OS5PeX9uUAoUx09HdaZmh1EjPM23ACRY4LmXDX0ry2_3kkjMq6G_4jX6hDOCeJFqHG4JLaSjl4qEgpxhzF1amKpRlseMQZw3AarqvRvTU9PPPcqiKmVP3PjNIzMhDKIypJXl82sIUJNfXrSL_pvdtgk7D-FdrPSmsnqgblEl0k-1x3o5-WG3VSdp-Of9krMs1pZpQwJyukpl-UB4nkDjy19-FRGrYR-X-w6pyUWjhK5jAK8oXogaJn0m00]--></g></svg>